# xmcd
#
# Track frame offsets: 
#        150
#        36467
#        51926
#        67041
#        84634
#        109862
#        130896
#        154364
#        169771
#        191462
#
# Disc length: 2768 seconds
#
# Revision: 2
# Processed by: cddbd v1.5.2PL0 Copyright (c) Steve Scherf et al.
# Submitted via: ExactAudioCopy v1.0b2
#
DISCID=8f0ace0a
DTITLE=Various Artist - Poem and Songs 甜蜜的負荷
DYEAR=2008
DGENRE=Unknown Genre
TTITLE0=羅大佑 - 吾鄉印象
TTITLE1=林生祥 - 晒穀場
TTITLE2=吳志寧 - 全心全意愛你
TTITLE3=胡德夫 - 息燈後
TTITLE4=張懸 - 我不和你談論
TTITLE5=陳珊妮 - 秋日
TTITLE6=濁水溪公社 - 雨季
TTITLE7=黃小楨 - 沿海一公里
TTITLE8=黃玠 - 階
TTITLE9=吳志寧 - 負荷
EXTD=
EXTT0=
EXTT1=
EXTT2=
EXTT3=
EXTT4=
EXTT5=
EXTT6=
EXTT7=
EXTT8=
EXTT9=
PLAYORDER=
